<svg width="180" height="180" viewBox="0 0 180 180" xmlns="http://www.w3.org/2000/svg">
  <defs>
    <linearGradient id="grad1" x1="0%" y1="0%" x2="100%" y2="100%">
      <stop offset="0%" style="stop-color:#ff6b6b;stop-opacity:1" />
      <stop offset="100%" style="stop-color:#ff8e53;stop-opacity:1" />
    </linearGradient>
    <radialGradient id="radial1" cx="50%" cy="50%" r="50%">
      <stop offset="0%" style="stop-color:#ff6b6b;stop-opacity:0.15" />
      <stop offset="100%" style="stop-color:#ff8e53;stop-opacity:0.05" />
    </radialGradient>
  </defs>

  <!-- 背景 -->
  <rect width="180" height="180" rx="40" fill="url(#radial1)"/>
  <circle cx="90" cy="90" r="80" fill="url(#grad1)" opacity="0.08"/>

  <!-- 主图标 -->
  <g transform="translate(45, 45)">
    <!-- 机器人头部 -->
    <rect x="30" y="24" width="60" height="60" rx="12" fill="url(#grad1)" stroke="#ff6b6b" stroke-width="3"/>

    <!-- 眼睛 -->
    <circle cx="45" cy="42" r="6" fill="#ff6b6b"/>
    <circle cx="75" cy="42" r="6" fill="#ff6b6b"/>

    <!-- 眼睛高光 -->
    <circle cx="47" cy="40" r="2" fill="white"/>
    <circle cx="77" cy="40" r="2" fill="white"/>

    <!-- 嘴巴 -->
    <path d="M 45 60 Q 60 70 75 60" stroke="#ff6b6b" stroke-width="3" fill="none"/>

    <!-- 天线 -->
    <line x1="60" y1="24" x2="60" y2="12" stroke="#ff6b6b" stroke-width="3"/>
    <circle cx="60" cy="12" r="3" fill="#ff6b6b"/>

    <!-- 身体 -->
    <rect x="40" y="84" width="40" height="32" rx="8" fill="url(#grad1)" stroke="#ff6b6b" stroke-width="3"/>

    <!-- 手臂 -->
    <rect x="20" y="92" width="20" height="6" rx="3" fill="#ff6b6b"/>
    <rect x="80" y="92" width="20" height="6" rx="3" fill="#ff6b6b"/>

    <!-- 腿部 -->
    <rect x="48" y="116" width="12" height="16" rx="4" fill="#ff6b6b"/>
    <rect x="60" y="116" width="12" height="16" rx="4" fill="#ff6b6b"/>
  </g>

  <!-- 装饰性元素 -->
  <circle cx="36" cy="36" r="6" fill="#ff6b6b" opacity="0.2"/>
  <circle cx="144" cy="144" r="6" fill="#ff8e53" opacity="0.2"/>
  <circle cx="144" cy="36" r="4" fill="#ff6b6b" opacity="0.15"/>
  <circle cx="36" cy="144" r="4" fill="#ff8e53" opacity="0.15"/>
</svg>
