<svg width="512" height="512" viewBox="0 0 512 512" xmlns="http://www.w3.org/2000/svg">
  <defs>
    <linearGradient id="grad1" x1="0%" y1="0%" x2="100%" y2="100%">
      <stop offset="0%" style="stop-color:#ff6b6b;stop-opacity:1" />
      <stop offset="100%" style="stop-color:#ff8e53;stop-opacity:1" />
    </linearGradient>
    <radialGradient id="radial1" cx="50%" cy="50%" r="50%">
      <stop offset="0%" style="stop-color:#ff6b6b;stop-opacity:0.1" />
      <stop offset="100%" style="stop-color:#ff8e53;stop-opacity:0.05" />
    </radialGradient>
  </defs>

  <!-- 背景 -->
  <rect width="512" height="512" fill="url(#radial1)"/>
  <circle cx="256" cy="256" r="240" fill="url(#grad1)" opacity="0.05"/>

  <!-- 主图标 -->
  <g transform="translate(128, 128)">
    <!-- 机器人头部 -->
    <rect x="64" y="48" width="128" height="128" rx="20" fill="url(#grad1)" stroke="#ff6b6b" stroke-width="4"/>

    <!-- 眼睛 -->
    <circle cx="96" cy="88" r="12" fill="#ff6b6b"/>
    <circle cx="160" cy="88" r="12" fill="#ff6b6b"/>

    <!-- 眼睛高光 -->
    <circle cx="100" cy="84" r="4" fill="white"/>
    <circle cx="164" cy="84" r="4" fill="white"/>

    <!-- 嘴巴 -->
    <path d="M 96 120 Q 128 140 160 120" stroke="#ff6b6b" stroke-width="4" fill="none"/>

    <!-- 天线 -->
    <line x1="128" y1="48" x2="128" y2="24" stroke="#ff6b6b" stroke-width="4"/>
    <circle cx="128" cy="24" r="6" fill="#ff6b6b"/>

    <!-- 身体 -->
    <rect x="88" y="176" width="80" height="64" rx="12" fill="url(#grad1)" stroke="#ff6b6b" stroke-width="4"/>

    <!-- 手臂 -->
    <rect x="40" y="184" width="48" height="12" rx="6" fill="#ff6b6b"/>
    <rect x="176" y="184" width="48" height="12" rx="6" fill="#ff6b6b"/>

    <!-- 腿部 -->
    <rect x="96" y="240" width="24" height="32" rx="6" fill="#ff6b6b"/>
    <rect x="136" y="240" width="24" height="32" rx="6" fill="#ff6b6b"/>

    <!-- 装饰性电路图案 -->
    <path d="M 80 64 L 96 64 L 96 80" stroke="#ff6b6b" stroke-width="2" fill="none" opacity="0.6"/>
    <path d="M 176 64 L 160 64 L 160 80" stroke="#ff6b6b" stroke-width="2" fill="none" opacity="0.6"/>
    <path d="M 80 144 L 96 144 L 96 160" stroke="#ff6b6b" stroke-width="2" fill="none" opacity="0.6"/>
    <path d="M 176 144 L 160 144 L 160 160" stroke="#ff6b6b" stroke-width="2" fill="none" opacity="0.6"/>
  </g>

  <!-- 装饰性元素 -->
  <circle cx="96" cy="96" r="12" fill="#ff6b6b" opacity="0.2"/>
  <circle cx="416" cy="416" r="12" fill="#ff8e53" opacity="0.2"/>
  <circle cx="416" cy="96" r="8" fill="#ff6b6b" opacity="0.15"/>
  <circle cx="96" cy="416" r="8" fill="#ff8e53" opacity="0.15"/>

  <!-- 小装饰点 -->
  <circle cx="64" cy="64" r="4" fill="#ff6b6b" opacity="0.3"/>
  <circle cx="448" cy="448" r="4" fill="#ff8e53" opacity="0.3"/>
  <circle cx="448" cy="64" r="3" fill="#ff6b6b" opacity="0.2"/>
  <circle cx="64" cy="448" r="3" fill="#ff8e53" opacity="0.2"/>
</svg>
