<svg width="192" height="192" viewBox="0 0 192 192" xmlns="http://www.w3.org/2000/svg">
  <defs>
    <linearGradient id="grad1" x1="0%" y1="0%" x2="100%" y2="100%">
      <stop offset="0%" style="stop-color:#ff6b6b;stop-opacity:1" />
      <stop offset="100%" style="stop-color:#ff8e53;stop-opacity:1" />
    </linearGradient>
  </defs>

  <!-- 背景圆形 -->
  <circle cx="96" cy="96" r="88" fill="url(#grad1)" opacity="0.1"/>

  <!-- 主图标 -->
  <g transform="translate(48, 48)">
    <!-- 机器人头部 -->
    <rect x="24" y="16" width="48" height="48" rx="8" fill="url(#grad1)" stroke="#ff6b6b" stroke-width="2"/>

    <!-- 眼睛 -->
    <circle cx="36" cy="32" r="4" fill="#ff6b6b"/>
    <circle cx="60" cy="32" r="4" fill="#ff6b6b"/>

    <!-- 嘴巴 -->
    <path d="M 36 44 Q 48 52 60 44" stroke="#ff6b6b" stroke-width="2" fill="none"/>

    <!-- 天线 -->
    <line x1="48" y1="16" x2="48" y2="8" stroke="#ff6b6b" stroke-width="2"/>
    <circle cx="48" cy="8" r="2" fill="#ff6b6b"/>

    <!-- 身体 -->
    <rect x="32" y="64" width="32" height="24" rx="4" fill="url(#grad1)" stroke="#ff6b6b" stroke-width="2"/>

    <!-- 手臂 -->
    <rect x="16" y="68" width="16" height="4" rx="2" fill="#ff6b6b"/>
    <rect x="64" y="68" width="16" height="4" rx="2" fill="#ff6b6b"/>

    <!-- 腿部 -->
    <rect x="36" y="88" width="8" height="12" rx="2" fill="#ff6b6b"/>
    <rect x="52" y="88" width="8" height="12" rx="2" fill="#ff6b6b"/>
  </g>

  <!-- 装饰性元素 -->
  <circle cx="32" cy="32" r="4" fill="#ff6b6b" opacity="0.3"/>
  <circle cx="160" cy="160" r="4" fill="#ff8e53" opacity="0.3"/>
  <circle cx="160" cy="32" r="3" fill="#ff6b6b" opacity="0.2"/>
  <circle cx="32" cy="160" r="3" fill="#ff8e53" opacity="0.2"/>
</svg>
